<svg width="40" height="30" viewBox="0 0 40 30" fill="none" xmlns="http://www.w3.org/2000/svg">
<path d="M2.72727 30.0071H9.09091V14.5526L0 7.73438V27.2798C0 28.7866 1.22045 30.0071 2.72727 30.0071Z" fill="#4285F4"/>
<path d="M30.9082 30.0071H37.2718C38.7787 30.0071 39.9991 28.7866 39.9991 27.2798V7.73438L30.9082 14.5526V30.0071Z" fill="#34A853"/>
<path d="M30.9082 2.73462V14.5528L39.9991 7.73462V4.09826C39.9991 0.727804 36.1514 -1.1972 33.4537 0.825531L30.9082 2.73462Z" fill="#FBBC04"/>
<path fill-rule="evenodd" clip-rule="evenodd" d="M9.0918 14.5526V2.73438L20.0009 10.9162L30.91 2.73438V14.5526L20.0009 22.7344L9.0918 14.5526Z" fill="#EA4335"/>
<path d="M0 4.09826V7.73462L9.09091 14.5528V2.73462L6.54546 0.825531C3.84773 -1.1972 0 0.727804 0 4.09826Z" fill="#C5221F"/>
</svg>
