<svg xmlns="http://www.w3.org/2000/svg" xmlns:xlink="http://www.w3.org/1999/xlink" viewBox="0 0 1500 1500" width="1500" height="1500" preserveAspectRatio="xMidYMid meet" style="width: 100%; height: 100%; transform: translate3d(0px, 0px, 0px); content-visibility: visible;"><defs><clipPath id="__lottie_element_26445"><rect width="1500" height="1500" x="0" y="0"></rect></clipPath></defs><g clip-path="url(#__lottie_element_26445)"><g transform="matrix(0,0,0,0,702,745.5679931640625)" opacity="1" style="display: block;"><g opacity="1" transform="matrix(1,0,0,1,-60,-130)"><path fill="rgb(237,20,86)" fill-opacity="1" d=" M2.841792996939336e-15,-46.40999984741211 C2.841792996939336e-15,-46.40999984741211 23.479480743408203,-23.479480743408203 23.479480743408203,-23.479480743408203 C23.479480743408203,-23.479480743408203 46.40999984741211,0 46.40999984741211,0 C46.40999984741211,0 23.479480743408203,23.479480743408203 23.479480743408203,23.479480743408203 C23.479480743408203,23.479480743408203 2.841792996939336e-15,46.40999984741211 2.841792996939336e-15,46.40999984741211 C2.841792996939336e-15,46.40999984741211 -23.479480743408203,23.479480743408203 -23.479480743408203,23.479480743408203 C-23.479480743408203,23.479480743408203 -46.40999984741211,5.683585993878672e-15 -46.40999984741211,5.683585993878672e-15 C-46.40999984741211,5.683585993878672e-15 -23.479480743408203,-23.479480743408203 -23.479480743408203,-23.479480743408203 C-23.479480743408203,-23.479480743408203 2.841792996939336e-15,-46.40999984741211 2.841792996939336e-15,-46.40999984741211z"></path><path stroke-linecap="butt" stroke-linejoin="miter" fill-opacity="0" stroke-miterlimit="4" stroke="rgb(89,126,209)" stroke-opacity="1" stroke-width="0" d=" M2.841792996939336e-15,-46.40999984741211 C2.841792996939336e-15,-46.40999984741211 23.479480743408203,-23.479480743408203 23.479480743408203,-23.479480743408203 C23.479480743408203,-23.479480743408203 46.40999984741211,0 46.40999984741211,0 C46.40999984741211,0 23.479480743408203,23.479480743408203 23.479480743408203,23.479480743408203 C23.479480743408203,23.479480743408203 2.841792996939336e-15,46.40999984741211 2.841792996939336e-15,46.40999984741211 C2.841792996939336e-15,46.40999984741211 -23.479480743408203,23.479480743408203 -23.479480743408203,23.479480743408203 C-23.479480743408203,23.479480743408203 -46.40999984741211,5.683585993878672e-15 -46.40999984741211,5.683585993878672e-15 C-46.40999984741211,5.683585993878672e-15 -23.479480743408203,-23.479480743408203 -23.479480743408203,-23.479480743408203 C-23.479480743408203,-23.479480743408203 2.841792996939336e-15,-46.40999984741211 2.841792996939336e-15,-46.40999984741211z"></path></g></g><g transform="matrix(0,0,0,0,292,390.5679931640625)" opacity="1" style="display: block;"><g opacity="1" transform="matrix(1,0,0,1,-60,-130)"><path fill="rgb(237,106,20)" fill-opacity="1" d=" M2.841792996939336e-15,-46.40999984741211 C2.841792996939336e-15,-46.40999984741211 23.479480743408203,-23.479480743408203 23.479480743408203,-23.479480743408203 C23.479480743408203,-23.479480743408203 46.40999984741211,0 46.40999984741211,0 C46.40999984741211,0 23.479480743408203,23.479480743408203 23.479480743408203,23.479480743408203 C23.479480743408203,23.479480743408203 2.841792996939336e-15,46.40999984741211 2.841792996939336e-15,46.40999984741211 C2.841792996939336e-15,46.40999984741211 -23.479480743408203,23.479480743408203 -23.479480743408203,23.479480743408203 C-23.479480743408203,23.479480743408203 -46.40999984741211,5.683585993878672e-15 -46.40999984741211,5.683585993878672e-15 C-46.40999984741211,5.683585993878672e-15 -23.479480743408203,-23.479480743408203 -23.479480743408203,-23.479480743408203 C-23.479480743408203,-23.479480743408203 2.841792996939336e-15,-46.40999984741211 2.841792996939336e-15,-46.40999984741211z"></path><path stroke-linecap="butt" stroke-linejoin="miter" fill-opacity="0" stroke-miterlimit="4" stroke="rgb(89,126,209)" stroke-opacity="1" stroke-width="0" d=" M2.841792996939336e-15,-46.40999984741211 C2.841792996939336e-15,-46.40999984741211 23.479480743408203,-23.479480743408203 23.479480743408203,-23.479480743408203 C23.479480743408203,-23.479480743408203 46.40999984741211,0 46.40999984741211,0 C46.40999984741211,0 23.479480743408203,23.479480743408203 23.479480743408203,23.479480743408203 C23.479480743408203,23.479480743408203 2.841792996939336e-15,46.40999984741211 2.841792996939336e-15,46.40999984741211 C2.841792996939336e-15,46.40999984741211 -23.479480743408203,23.479480743408203 -23.479480743408203,23.479480743408203 C-23.479480743408203,23.479480743408203 -46.40999984741211,5.683585993878672e-15 -46.40999984741211,5.683585993878672e-15 C-46.40999984741211,5.683585993878672e-15 -23.479480743408203,-23.479480743408203 -23.479480743408203,-23.479480743408203 C-23.479480743408203,-23.479480743408203 2.841792996939336e-15,-46.40999984741211 2.841792996939336e-15,-46.40999984741211z"></path></g></g><g transform="matrix(0,0,0,0,1242,310.5679931640625)" opacity="1" style="display: block;"><g opacity="1" transform="matrix(1,0,0,1,-60,-130)"><path fill="rgb(237,208,20)" fill-opacity="1" d=" M2.841792996939336e-15,-46.40999984741211 C2.841792996939336e-15,-46.40999984741211 23.479480743408203,-23.479480743408203 23.479480743408203,-23.479480743408203 C23.479480743408203,-23.479480743408203 46.40999984741211,0 46.40999984741211,0 C46.40999984741211,0 23.479480743408203,23.479480743408203 23.479480743408203,23.479480743408203 C23.479480743408203,23.479480743408203 2.841792996939336e-15,46.40999984741211 2.841792996939336e-15,46.40999984741211 C2.841792996939336e-15,46.40999984741211 -23.479480743408203,23.479480743408203 -23.479480743408203,23.479480743408203 C-23.479480743408203,23.479480743408203 -46.40999984741211,5.683585993878672e-15 -46.40999984741211,5.683585993878672e-15 C-46.40999984741211,5.683585993878672e-15 -23.479480743408203,-23.479480743408203 -23.479480743408203,-23.479480743408203 C-23.479480743408203,-23.479480743408203 2.841792996939336e-15,-46.40999984741211 2.841792996939336e-15,-46.40999984741211z"></path><path stroke-linecap="butt" stroke-linejoin="miter" fill-opacity="0" stroke-miterlimit="4" stroke="rgb(89,126,209)" stroke-opacity="1" stroke-width="0" d=" M2.841792996939336e-15,-46.40999984741211 C2.841792996939336e-15,-46.40999984741211 23.479480743408203,-23.479480743408203 23.479480743408203,-23.479480743408203 C23.479480743408203,-23.479480743408203 46.40999984741211,0 46.40999984741211,0 C46.40999984741211,0 23.479480743408203,23.479480743408203 23.479480743408203,23.479480743408203 C23.479480743408203,23.479480743408203 2.841792996939336e-15,46.40999984741211 2.841792996939336e-15,46.40999984741211 C2.841792996939336e-15,46.40999984741211 -23.479480743408203,23.479480743408203 -23.479480743408203,23.479480743408203 C-23.479480743408203,23.479480743408203 -46.40999984741211,5.683585993878672e-15 -46.40999984741211,5.683585993878672e-15 C-46.40999984741211,5.683585993878672e-15 -23.479480743408203,-23.479480743408203 -23.479480743408203,-23.479480743408203 C-23.479480743408203,-23.479480743408203 2.841792996939336e-15,-46.40999984741211 2.841792996939336e-15,-46.40999984741211z"></path></g></g><g transform="matrix(0,0,0,0,437,1060.5679931640625)" opacity="1" style="display: block;"><g opacity="1" transform="matrix(1,0,0,1,-60,-130)"><path fill="rgb(20,117,237)" fill-opacity="1" d=" M2.841792996939336e-15,-46.40999984741211 C2.841792996939336e-15,-46.40999984741211 23.479480743408203,-23.479480743408203 23.479480743408203,-23.479480743408203 C23.479480743408203,-23.479480743408203 46.40999984741211,0 46.40999984741211,0 C46.40999984741211,0 23.479480743408203,23.479480743408203 23.479480743408203,23.479480743408203 C23.479480743408203,23.479480743408203 2.841792996939336e-15,46.40999984741211 2.841792996939336e-15,46.40999984741211 C2.841792996939336e-15,46.40999984741211 -23.479480743408203,23.479480743408203 -23.479480743408203,23.479480743408203 C-23.479480743408203,23.479480743408203 -46.40999984741211,5.683585993878672e-15 -46.40999984741211,5.683585993878672e-15 C-46.40999984741211,5.683585993878672e-15 -23.479480743408203,-23.479480743408203 -23.479480743408203,-23.479480743408203 C-23.479480743408203,-23.479480743408203 2.841792996939336e-15,-46.40999984741211 2.841792996939336e-15,-46.40999984741211z"></path><path fill="rgb(20,117,237)" fill-opacity="1" d=" M2.841792996939336e-15,-46.40999984741211 C2.841792996939336e-15,-46.40999984741211 23.479480743408203,-23.479480743408203 23.479480743408203,-23.479480743408203 C23.479480743408203,-23.479480743408203 46.40999984741211,0 46.40999984741211,0 C46.40999984741211,0 23.479480743408203,23.479480743408203 23.479480743408203,23.479480743408203 C23.479480743408203,23.479480743408203 2.841792996939336e-15,46.40999984741211 2.841792996939336e-15,46.40999984741211 C2.841792996939336e-15,46.40999984741211 -23.479480743408203,23.479480743408203 -23.479480743408203,23.479480743408203 C-23.479480743408203,23.479480743408203 -46.40999984741211,5.683585993878672e-15 -46.40999984741211,5.683585993878672e-15 C-46.40999984741211,5.683585993878672e-15 -23.479480743408203,-23.479480743408203 -23.479480743408203,-23.479480743408203 C-23.479480743408203,-23.479480743408203 2.841792996939336e-15,-46.40999984741211 2.841792996939336e-15,-46.40999984741211z"></path><path fill="rgb(20,117,237)" fill-opacity="1" d=" M2.841792996939336e-15,-46.40999984741211 C2.841792996939336e-15,-46.40999984741211 23.479480743408203,-23.479480743408203 23.479480743408203,-23.479480743408203 C23.479480743408203,-23.479480743408203 46.40999984741211,0 46.40999984741211,0 C46.40999984741211,0 23.479480743408203,23.479480743408203 23.479480743408203,23.479480743408203 C23.479480743408203,23.479480743408203 2.841792996939336e-15,46.40999984741211 2.841792996939336e-15,46.40999984741211 C2.841792996939336e-15,46.40999984741211 -23.479480743408203,23.479480743408203 -23.479480743408203,23.479480743408203 C-23.479480743408203,23.479480743408203 -46.40999984741211,5.683585993878672e-15 -46.40999984741211,5.683585993878672e-15 C-46.40999984741211,5.683585993878672e-15 -23.479480743408203,-23.479480743408203 -23.479480743408203,-23.479480743408203 C-23.479480743408203,-23.479480743408203 2.841792996939336e-15,-46.40999984741211 2.841792996939336e-15,-46.40999984741211z"></path><path stroke-linecap="butt" stroke-linejoin="miter" fill-opacity="0" stroke-miterlimit="4" stroke="rgb(89,126,209)" stroke-opacity="1" stroke-width="0" d=" M2.841792996939336e-15,-46.40999984741211 C2.841792996939336e-15,-46.40999984741211 23.479480743408203,-23.479480743408203 23.479480743408203,-23.479480743408203 C23.479480743408203,-23.479480743408203 46.40999984741211,0 46.40999984741211,0 C46.40999984741211,0 23.479480743408203,23.479480743408203 23.479480743408203,23.479480743408203 C23.479480743408203,23.479480743408203 2.841792996939336e-15,46.40999984741211 2.841792996939336e-15,46.40999984741211 C2.841792996939336e-15,46.40999984741211 -23.479480743408203,23.479480743408203 -23.479480743408203,23.479480743408203 C-23.479480743408203,23.479480743408203 -46.40999984741211,5.683585993878672e-15 -46.40999984741211,5.683585993878672e-15 C-46.40999984741211,5.683585993878672e-15 -23.479480743408203,-23.479480743408203 -23.479480743408203,-23.479480743408203 C-23.479480743408203,-23.479480743408203 2.841792996939336e-15,-46.40999984741211 2.841792996939336e-15,-46.40999984741211z"></path></g></g><g transform="matrix(0,0,0,0,1237,775.5679931640625)" opacity="1" style="display: block;"><g opacity="1" transform="matrix(1,0,0,1,-60,-130)"><path fill="rgb(9,165,130)" fill-opacity="1" d=" M2.841792996939336e-15,-46.40999984741211 C2.841792996939336e-15,-46.40999984741211 23.479480743408203,-23.479480743408203 23.479480743408203,-23.479480743408203 C23.479480743408203,-23.479480743408203 46.40999984741211,0 46.40999984741211,0 C46.40999984741211,0 23.479480743408203,23.479480743408203 23.479480743408203,23.479480743408203 C23.479480743408203,23.479480743408203 2.841792996939336e-15,46.40999984741211 2.841792996939336e-15,46.40999984741211 C2.841792996939336e-15,46.40999984741211 -23.479480743408203,23.479480743408203 -23.479480743408203,23.479480743408203 C-23.479480743408203,23.479480743408203 -46.40999984741211,5.683585993878672e-15 -46.40999984741211,5.683585993878672e-15 C-46.40999984741211,5.683585993878672e-15 -23.479480743408203,-23.479480743408203 -23.479480743408203,-23.479480743408203 C-23.479480743408203,-23.479480743408203 2.841792996939336e-15,-46.40999984741211 2.841792996939336e-15,-46.40999984741211z"></path><path fill="rgb(9,165,130)" fill-opacity="1" d=" M2.841792996939336e-15,-46.40999984741211 C2.841792996939336e-15,-46.40999984741211 23.479480743408203,-23.479480743408203 23.479480743408203,-23.479480743408203 C23.479480743408203,-23.479480743408203 46.40999984741211,0 46.40999984741211,0 C46.40999984741211,0 23.479480743408203,23.479480743408203 23.479480743408203,23.479480743408203 C23.479480743408203,23.479480743408203 2.841792996939336e-15,46.40999984741211 2.841792996939336e-15,46.40999984741211 C2.841792996939336e-15,46.40999984741211 -23.479480743408203,23.479480743408203 -23.479480743408203,23.479480743408203 C-23.479480743408203,23.479480743408203 -46.40999984741211,5.683585993878672e-15 -46.40999984741211,5.683585993878672e-15 C-46.40999984741211,5.683585993878672e-15 -23.479480743408203,-23.479480743408203 -23.479480743408203,-23.479480743408203 C-23.479480743408203,-23.479480743408203 2.841792996939336e-15,-46.40999984741211 2.841792996939336e-15,-46.40999984741211z"></path><path fill="rgb(9,165,130)" fill-opacity="1" d=" M2.841792996939336e-15,-46.40999984741211 C2.841792996939336e-15,-46.40999984741211 23.479480743408203,-23.479480743408203 23.479480743408203,-23.479480743408203 C23.479480743408203,-23.479480743408203 46.40999984741211,0 46.40999984741211,0 C46.40999984741211,0 23.479480743408203,23.479480743408203 23.479480743408203,23.479480743408203 C23.479480743408203,23.479480743408203 2.841792996939336e-15,46.40999984741211 2.841792996939336e-15,46.40999984741211 C2.841792996939336e-15,46.40999984741211 -23.479480743408203,23.479480743408203 -23.479480743408203,23.479480743408203 C-23.479480743408203,23.479480743408203 -46.40999984741211,5.683585993878672e-15 -46.40999984741211,5.683585993878672e-15 C-46.40999984741211,5.683585993878672e-15 -23.479480743408203,-23.479480743408203 -23.479480743408203,-23.479480743408203 C-23.479480743408203,-23.479480743408203 2.841792996939336e-15,-46.40999984741211 2.841792996939336e-15,-46.40999984741211z"></path><path stroke-linecap="butt" stroke-linejoin="miter" fill-opacity="0" stroke-miterlimit="4" stroke="rgb(89,126,209)" stroke-opacity="1" stroke-width="0" d=" M2.841792996939336e-15,-46.40999984741211 C2.841792996939336e-15,-46.40999984741211 23.479480743408203,-23.479480743408203 23.479480743408203,-23.479480743408203 C23.479480743408203,-23.479480743408203 46.40999984741211,0 46.40999984741211,0 C46.40999984741211,0 23.479480743408203,23.479480743408203 23.479480743408203,23.479480743408203 C23.479480743408203,23.479480743408203 2.841792996939336e-15,46.40999984741211 2.841792996939336e-15,46.40999984741211 C2.841792996939336e-15,46.40999984741211 -23.479480743408203,23.479480743408203 -23.479480743408203,23.479480743408203 C-23.479480743408203,23.479480743408203 -46.40999984741211,5.683585993878672e-15 -46.40999984741211,5.683585993878672e-15 C-46.40999984741211,5.683585993878672e-15 -23.479480743408203,-23.479480743408203 -23.479480743408203,-23.479480743408203 C-23.479480743408203,-23.479480743408203 2.841792996939336e-15,-46.40999984741211 2.841792996939336e-15,-46.40999984741211z"></path></g></g><g transform="matrix(0,0,0,0,862,1365.5679931640625)" opacity="1" style="display: block;"><g opacity="1" transform="matrix(1,0,0,1,-60,-130)"><path fill="rgb(9,75,165)" fill-opacity="1" d=" M2.841792996939336e-15,-46.40999984741211 C2.841792996939336e-15,-46.40999984741211 23.479480743408203,-23.479480743408203 23.479480743408203,-23.479480743408203 C23.479480743408203,-23.479480743408203 46.40999984741211,0 46.40999984741211,0 C46.40999984741211,0 23.479480743408203,23.479480743408203 23.479480743408203,23.479480743408203 C23.479480743408203,23.479480743408203 2.841792996939336e-15,46.40999984741211 2.841792996939336e-15,46.40999984741211 C2.841792996939336e-15,46.40999984741211 -23.479480743408203,23.479480743408203 -23.479480743408203,23.479480743408203 C-23.479480743408203,23.479480743408203 -46.40999984741211,5.683585993878672e-15 -46.40999984741211,5.683585993878672e-15 C-46.40999984741211,5.683585993878672e-15 -23.479480743408203,-23.479480743408203 -23.479480743408203,-23.479480743408203 C-23.479480743408203,-23.479480743408203 2.841792996939336e-15,-46.40999984741211 2.841792996939336e-15,-46.40999984741211z"></path><path fill="rgb(9,75,165)" fill-opacity="1" d=" M2.841792996939336e-15,-46.40999984741211 C2.841792996939336e-15,-46.40999984741211 23.479480743408203,-23.479480743408203 23.479480743408203,-23.479480743408203 C23.479480743408203,-23.479480743408203 46.40999984741211,0 46.40999984741211,0 C46.40999984741211,0 23.479480743408203,23.479480743408203 23.479480743408203,23.479480743408203 C23.479480743408203,23.479480743408203 2.841792996939336e-15,46.40999984741211 2.841792996939336e-15,46.40999984741211 C2.841792996939336e-15,46.40999984741211 -23.479480743408203,23.479480743408203 -23.479480743408203,23.479480743408203 C-23.479480743408203,23.479480743408203 -46.40999984741211,5.683585993878672e-15 -46.40999984741211,5.683585993878672e-15 C-46.40999984741211,5.683585993878672e-15 -23.479480743408203,-23.479480743408203 -23.479480743408203,-23.479480743408203 C-23.479480743408203,-23.479480743408203 2.841792996939336e-15,-46.40999984741211 2.841792996939336e-15,-46.40999984741211z"></path><path fill="rgb(9,75,165)" fill-opacity="1" d=" M2.841792996939336e-15,-46.40999984741211 C2.841792996939336e-15,-46.40999984741211 23.479480743408203,-23.479480743408203 23.479480743408203,-23.479480743408203 C23.479480743408203,-23.479480743408203 46.40999984741211,0 46.40999984741211,0 C46.40999984741211,0 23.479480743408203,23.479480743408203 23.479480743408203,23.479480743408203 C23.479480743408203,23.479480743408203 2.841792996939336e-15,46.40999984741211 2.841792996939336e-15,46.40999984741211 C2.841792996939336e-15,46.40999984741211 -23.479480743408203,23.479480743408203 -23.479480743408203,23.479480743408203 C-23.479480743408203,23.479480743408203 -46.40999984741211,5.683585993878672e-15 -46.40999984741211,5.683585993878672e-15 C-46.40999984741211,5.683585993878672e-15 -23.479480743408203,-23.479480743408203 -23.479480743408203,-23.479480743408203 C-23.479480743408203,-23.479480743408203 2.841792996939336e-15,-46.40999984741211 2.841792996939336e-15,-46.40999984741211z"></path><path fill="rgb(9,75,165)" fill-opacity="1" d=" M2.841792996939336e-15,-46.40999984741211 C2.841792996939336e-15,-46.40999984741211 23.479480743408203,-23.479480743408203 23.479480743408203,-23.479480743408203 C23.479480743408203,-23.479480743408203 46.40999984741211,0 46.40999984741211,0 C46.40999984741211,0 23.479480743408203,23.479480743408203 23.479480743408203,23.479480743408203 C23.479480743408203,23.479480743408203 2.841792996939336e-15,46.40999984741211 2.841792996939336e-15,46.40999984741211 C2.841792996939336e-15,46.40999984741211 -23.479480743408203,23.479480743408203 -23.479480743408203,23.479480743408203 C-23.479480743408203,23.479480743408203 -46.40999984741211,5.683585993878672e-15 -46.40999984741211,5.683585993878672e-15 C-46.40999984741211,5.683585993878672e-15 -23.479480743408203,-23.479480743408203 -23.479480743408203,-23.479480743408203 C-23.479480743408203,-23.479480743408203 2.841792996939336e-15,-46.40999984741211 2.841792996939336e-15,-46.40999984741211z"></path><path fill="rgb(9,75,165)" fill-opacity="1" d=" M2.841792996939336e-15,-46.40999984741211 C2.841792996939336e-15,-46.40999984741211 23.479480743408203,-23.479480743408203 23.479480743408203,-23.479480743408203 C23.479480743408203,-23.479480743408203 46.40999984741211,0 46.40999984741211,0 C46.40999984741211,0 23.479480743408203,23.479480743408203 23.479480743408203,23.479480743408203 C23.479480743408203,23.479480743408203 2.841792996939336e-15,46.40999984741211 2.841792996939336e-15,46.40999984741211 C2.841792996939336e-15,46.40999984741211 -23.479480743408203,23.479480743408203 -23.479480743408203,23.479480743408203 C-23.479480743408203,23.479480743408203 -46.40999984741211,5.683585993878672e-15 -46.40999984741211,5.683585993878672e-15 C-46.40999984741211,5.683585993878672e-15 -23.479480743408203,-23.479480743408203 -23.479480743408203,-23.479480743408203 C-23.479480743408203,-23.479480743408203 2.841792996939336e-15,-46.40999984741211 2.841792996939336e-15,-46.40999984741211z"></path><path fill="rgb(9,75,165)" fill-opacity="1" d=" M2.841792996939336e-15,-46.40999984741211 C2.841792996939336e-15,-46.40999984741211 23.479480743408203,-23.479480743408203 23.479480743408203,-23.479480743408203 C23.479480743408203,-23.479480743408203 46.40999984741211,0 46.40999984741211,0 C46.40999984741211,0 23.479480743408203,23.479480743408203 23.479480743408203,23.479480743408203 C23.479480743408203,23.479480743408203 2.841792996939336e-15,46.40999984741211 2.841792996939336e-15,46.40999984741211 C2.841792996939336e-15,46.40999984741211 -23.479480743408203,23.479480743408203 -23.479480743408203,23.479480743408203 C-23.479480743408203,23.479480743408203 -46.40999984741211,5.683585993878672e-15 -46.40999984741211,5.683585993878672e-15 C-46.40999984741211,5.683585993878672e-15 -23.479480743408203,-23.479480743408203 -23.479480743408203,-23.479480743408203 C-23.479480743408203,-23.479480743408203 2.841792996939336e-15,-46.40999984741211 2.841792996939336e-15,-46.40999984741211z"></path><path stroke-linecap="butt" stroke-linejoin="miter" fill-opacity="0" stroke-miterlimit="4" stroke="rgb(89,126,209)" stroke-opacity="1" stroke-width="0" d=" M2.841792996939336e-15,-46.40999984741211 C2.841792996939336e-15,-46.40999984741211 23.479480743408203,-23.479480743408203 23.479480743408203,-23.479480743408203 C23.479480743408203,-23.479480743408203 46.40999984741211,0 46.40999984741211,0 C46.40999984741211,0 23.479480743408203,23.479480743408203 23.479480743408203,23.479480743408203 C23.479480743408203,23.479480743408203 2.841792996939336e-15,46.40999984741211 2.841792996939336e-15,46.40999984741211 C2.841792996939336e-15,46.40999984741211 -23.479480743408203,23.479480743408203 -23.479480743408203,23.479480743408203 C-23.479480743408203,23.479480743408203 -46.40999984741211,5.683585993878672e-15 -46.40999984741211,5.683585993878672e-15 C-46.40999984741211,5.683585993878672e-15 -23.479480743408203,-23.479480743408203 -23.479480743408203,-23.479480743408203 C-23.479480743408203,-23.479480743408203 2.841792996939336e-15,-46.40999984741211 2.841792996939336e-15,-46.40999984741211z"></path></g></g><g transform="matrix(0,0,0,0,1227,240.5679931640625)" opacity="1" style="display: block;"><g opacity="1" transform="matrix(1,0,0,1,-60,-130)"><path fill="rgb(238,50,213)" fill-opacity="1" d=" M2.841792996939336e-15,-46.40999984741211 C2.841792996939336e-15,-46.40999984741211 23.479480743408203,-23.479480743408203 23.479480743408203,-23.479480743408203 C23.479480743408203,-23.479480743408203 46.40999984741211,0 46.40999984741211,0 C46.40999984741211,0 23.479480743408203,23.479480743408203 23.479480743408203,23.479480743408203 C23.479480743408203,23.479480743408203 2.841792996939336e-15,46.40999984741211 2.841792996939336e-15,46.40999984741211 C2.841792996939336e-15,46.40999984741211 -23.479480743408203,23.479480743408203 -23.479480743408203,23.479480743408203 C-23.479480743408203,23.479480743408203 -46.40999984741211,5.683585993878672e-15 -46.40999984741211,5.683585993878672e-15 C-46.40999984741211,5.683585993878672e-15 -23.479480743408203,-23.479480743408203 -23.479480743408203,-23.479480743408203 C-23.479480743408203,-23.479480743408203 2.841792996939336e-15,-46.40999984741211 2.841792996939336e-15,-46.40999984741211z"></path><path fill="rgb(238,50,213)" fill-opacity="1" d=" M2.841792996939336e-15,-46.40999984741211 C2.841792996939336e-15,-46.40999984741211 23.479480743408203,-23.479480743408203 23.479480743408203,-23.479480743408203 C23.479480743408203,-23.479480743408203 46.40999984741211,0 46.40999984741211,0 C46.40999984741211,0 23.479480743408203,23.479480743408203 23.479480743408203,23.479480743408203 C23.479480743408203,23.479480743408203 2.841792996939336e-15,46.40999984741211 2.841792996939336e-15,46.40999984741211 C2.841792996939336e-15,46.40999984741211 -23.479480743408203,23.479480743408203 -23.479480743408203,23.479480743408203 C-23.479480743408203,23.479480743408203 -46.40999984741211,5.683585993878672e-15 -46.40999984741211,5.683585993878672e-15 C-46.40999984741211,5.683585993878672e-15 -23.479480743408203,-23.479480743408203 -23.479480743408203,-23.479480743408203 C-23.479480743408203,-23.479480743408203 2.841792996939336e-15,-46.40999984741211 2.841792996939336e-15,-46.40999984741211z"></path><path fill="rgb(238,50,213)" fill-opacity="1" d=" M2.841792996939336e-15,-46.40999984741211 C2.841792996939336e-15,-46.40999984741211 23.479480743408203,-23.479480743408203 23.479480743408203,-23.479480743408203 C23.479480743408203,-23.479480743408203 46.40999984741211,0 46.40999984741211,0 C46.40999984741211,0 23.479480743408203,23.479480743408203 23.479480743408203,23.479480743408203 C23.479480743408203,23.479480743408203 2.841792996939336e-15,46.40999984741211 2.841792996939336e-15,46.40999984741211 C2.841792996939336e-15,46.40999984741211 -23.479480743408203,23.479480743408203 -23.479480743408203,23.479480743408203 C-23.479480743408203,23.479480743408203 -46.40999984741211,5.683585993878672e-15 -46.40999984741211,5.683585993878672e-15 C-46.40999984741211,5.683585993878672e-15 -23.479480743408203,-23.479480743408203 -23.479480743408203,-23.479480743408203 C-23.479480743408203,-23.479480743408203 2.841792996939336e-15,-46.40999984741211 2.841792996939336e-15,-46.40999984741211z"></path><path fill="rgb(238,50,213)" fill-opacity="1" d=" M2.841792996939336e-15,-46.40999984741211 C2.841792996939336e-15,-46.40999984741211 23.479480743408203,-23.479480743408203 23.479480743408203,-23.479480743408203 C23.479480743408203,-23.479480743408203 46.40999984741211,0 46.40999984741211,0 C46.40999984741211,0 23.479480743408203,23.479480743408203 23.479480743408203,23.479480743408203 C23.479480743408203,23.479480743408203 2.841792996939336e-15,46.40999984741211 2.841792996939336e-15,46.40999984741211 C2.841792996939336e-15,46.40999984741211 -23.479480743408203,23.479480743408203 -23.479480743408203,23.479480743408203 C-23.479480743408203,23.479480743408203 -46.40999984741211,5.683585993878672e-15 -46.40999984741211,5.683585993878672e-15 C-46.40999984741211,5.683585993878672e-15 -23.479480743408203,-23.479480743408203 -23.479480743408203,-23.479480743408203 C-23.479480743408203,-23.479480743408203 2.841792996939336e-15,-46.40999984741211 2.841792996939336e-15,-46.40999984741211z"></path><path fill="rgb(238,50,213)" fill-opacity="1" d=" M2.841792996939336e-15,-46.40999984741211 C2.841792996939336e-15,-46.40999984741211 23.479480743408203,-23.479480743408203 23.479480743408203,-23.479480743408203 C23.479480743408203,-23.479480743408203 46.40999984741211,0 46.40999984741211,0 C46.40999984741211,0 23.479480743408203,23.479480743408203 23.479480743408203,23.479480743408203 C23.479480743408203,23.479480743408203 2.841792996939336e-15,46.40999984741211 2.841792996939336e-15,46.40999984741211 C2.841792996939336e-15,46.40999984741211 -23.479480743408203,23.479480743408203 -23.479480743408203,23.479480743408203 C-23.479480743408203,23.479480743408203 -46.40999984741211,5.683585993878672e-15 -46.40999984741211,5.683585993878672e-15 C-46.40999984741211,5.683585993878672e-15 -23.479480743408203,-23.479480743408203 -23.479480743408203,-23.479480743408203 C-23.479480743408203,-23.479480743408203 2.841792996939336e-15,-46.40999984741211 2.841792996939336e-15,-46.40999984741211z"></path><path fill="rgb(238,50,213)" fill-opacity="1" d=" M2.841792996939336e-15,-46.40999984741211 C2.841792996939336e-15,-46.40999984741211 23.479480743408203,-23.479480743408203 23.479480743408203,-23.479480743408203 C23.479480743408203,-23.479480743408203 46.40999984741211,0 46.40999984741211,0 C46.40999984741211,0 23.479480743408203,23.479480743408203 23.479480743408203,23.479480743408203 C23.479480743408203,23.479480743408203 2.841792996939336e-15,46.40999984741211 2.841792996939336e-15,46.40999984741211 C2.841792996939336e-15,46.40999984741211 -23.479480743408203,23.479480743408203 -23.479480743408203,23.479480743408203 C-23.479480743408203,23.479480743408203 -46.40999984741211,5.683585993878672e-15 -46.40999984741211,5.683585993878672e-15 C-46.40999984741211,5.683585993878672e-15 -23.479480743408203,-23.479480743408203 -23.479480743408203,-23.479480743408203 C-23.479480743408203,-23.479480743408203 2.841792996939336e-15,-46.40999984741211 2.841792996939336e-15,-46.40999984741211z"></path><path stroke-linecap="butt" stroke-linejoin="miter" fill-opacity="0" stroke-miterlimit="4" stroke="rgb(89,126,209)" stroke-opacity="1" stroke-width="0" d=" M2.841792996939336e-15,-46.40999984741211 C2.841792996939336e-15,-46.40999984741211 23.479480743408203,-23.479480743408203 23.479480743408203,-23.479480743408203 C23.479480743408203,-23.479480743408203 46.40999984741211,0 46.40999984741211,0 C46.40999984741211,0 23.479480743408203,23.479480743408203 23.479480743408203,23.479480743408203 C23.479480743408203,23.479480743408203 2.841792996939336e-15,46.40999984741211 2.841792996939336e-15,46.40999984741211 C2.841792996939336e-15,46.40999984741211 -23.479480743408203,23.479480743408203 -23.479480743408203,23.479480743408203 C-23.479480743408203,23.479480743408203 -46.40999984741211,5.683585993878672e-15 -46.40999984741211,5.683585993878672e-15 C-46.40999984741211,5.683585993878672e-15 -23.479480743408203,-23.479480743408203 -23.479480743408203,-23.479480743408203 C-23.479480743408203,-23.479480743408203 2.841792996939336e-15,-46.40999984741211 2.841792996939336e-15,-46.40999984741211z"></path></g></g><g transform="matrix(0.11576711386442184,-0.038582418113946915,0.038582418113946915,0.11576711386442184,919.1327514648438,658.8158569335938)" opacity="1" style="display: block;"><g opacity="1" transform="matrix(1,0,0,1,-60,-130)"><path fill="rgb(50,143,238)" fill-opacity="1" d=" M2.841792996939336e-15,-46.40999984741211 C2.841792996939336e-15,-46.40999984741211 23.479480743408203,-23.479480743408203 23.479480743408203,-23.479480743408203 C23.479480743408203,-23.479480743408203 46.40999984741211,0 46.40999984741211,0 C46.40999984741211,0 23.479480743408203,23.479480743408203 23.479480743408203,23.479480743408203 C23.479480743408203,23.479480743408203 2.841792996939336e-15,46.40999984741211 2.841792996939336e-15,46.40999984741211 C2.841792996939336e-15,46.40999984741211 -23.479480743408203,23.479480743408203 -23.479480743408203,23.479480743408203 C-23.479480743408203,23.479480743408203 -46.40999984741211,5.683585993878672e-15 -46.40999984741211,5.683585993878672e-15 C-46.40999984741211,5.683585993878672e-15 -23.479480743408203,-23.479480743408203 -23.479480743408203,-23.479480743408203 C-23.479480743408203,-23.479480743408203 2.841792996939336e-15,-46.40999984741211 2.841792996939336e-15,-46.40999984741211z"></path><path fill="rgb(50,143,238)" fill-opacity="1" d=" M2.841792996939336e-15,-46.40999984741211 C2.841792996939336e-15,-46.40999984741211 23.479480743408203,-23.479480743408203 23.479480743408203,-23.479480743408203 C23.479480743408203,-23.479480743408203 46.40999984741211,0 46.40999984741211,0 C46.40999984741211,0 23.479480743408203,23.479480743408203 23.479480743408203,23.479480743408203 C23.479480743408203,23.479480743408203 2.841792996939336e-15,46.40999984741211 2.841792996939336e-15,46.40999984741211 C2.841792996939336e-15,46.40999984741211 -23.479480743408203,23.479480743408203 -23.479480743408203,23.479480743408203 C-23.479480743408203,23.479480743408203 -46.40999984741211,5.683585993878672e-15 -46.40999984741211,5.683585993878672e-15 C-46.40999984741211,5.683585993878672e-15 -23.479480743408203,-23.479480743408203 -23.479480743408203,-23.479480743408203 C-23.479480743408203,-23.479480743408203 2.841792996939336e-15,-46.40999984741211 2.841792996939336e-15,-46.40999984741211z"></path><path fill="rgb(50,143,238)" fill-opacity="1" d=" M2.841792996939336e-15,-46.40999984741211 C2.841792996939336e-15,-46.40999984741211 23.479480743408203,-23.479480743408203 23.479480743408203,-23.479480743408203 C23.479480743408203,-23.479480743408203 46.40999984741211,0 46.40999984741211,0 C46.40999984741211,0 23.479480743408203,23.479480743408203 23.479480743408203,23.479480743408203 C23.479480743408203,23.479480743408203 2.841792996939336e-15,46.40999984741211 2.841792996939336e-15,46.40999984741211 C2.841792996939336e-15,46.40999984741211 -23.479480743408203,23.479480743408203 -23.479480743408203,23.479480743408203 C-23.479480743408203,23.479480743408203 -46.40999984741211,5.683585993878672e-15 -46.40999984741211,5.683585993878672e-15 C-46.40999984741211,5.683585993878672e-15 -23.479480743408203,-23.479480743408203 -23.479480743408203,-23.479480743408203 C-23.479480743408203,-23.479480743408203 2.841792996939336e-15,-46.40999984741211 2.841792996939336e-15,-46.40999984741211z"></path><path fill="rgb(50,143,238)" fill-opacity="1" d=" M2.841792996939336e-15,-46.40999984741211 C2.841792996939336e-15,-46.40999984741211 23.479480743408203,-23.479480743408203 23.479480743408203,-23.479480743408203 C23.479480743408203,-23.479480743408203 46.40999984741211,0 46.40999984741211,0 C46.40999984741211,0 23.479480743408203,23.479480743408203 23.479480743408203,23.479480743408203 C23.479480743408203,23.479480743408203 2.841792996939336e-15,46.40999984741211 2.841792996939336e-15,46.40999984741211 C2.841792996939336e-15,46.40999984741211 -23.479480743408203,23.479480743408203 -23.479480743408203,23.479480743408203 C-23.479480743408203,23.479480743408203 -46.40999984741211,5.683585993878672e-15 -46.40999984741211,5.683585993878672e-15 C-46.40999984741211,5.683585993878672e-15 -23.479480743408203,-23.479480743408203 -23.479480743408203,-23.479480743408203 C-23.479480743408203,-23.479480743408203 2.841792996939336e-15,-46.40999984741211 2.841792996939336e-15,-46.40999984741211z"></path><path fill="rgb(50,143,238)" fill-opacity="1" d=" M2.841792996939336e-15,-46.40999984741211 C2.841792996939336e-15,-46.40999984741211 23.479480743408203,-23.479480743408203 23.479480743408203,-23.479480743408203 C23.479480743408203,-23.479480743408203 46.40999984741211,0 46.40999984741211,0 C46.40999984741211,0 23.479480743408203,23.479480743408203 23.479480743408203,23.479480743408203 C23.479480743408203,23.479480743408203 2.841792996939336e-15,46.40999984741211 2.841792996939336e-15,46.40999984741211 C2.841792996939336e-15,46.40999984741211 -23.479480743408203,23.479480743408203 -23.479480743408203,23.479480743408203 C-23.479480743408203,23.479480743408203 -46.40999984741211,5.683585993878672e-15 -46.40999984741211,5.683585993878672e-15 C-46.40999984741211,5.683585993878672e-15 -23.479480743408203,-23.479480743408203 -23.479480743408203,-23.479480743408203 C-23.479480743408203,-23.479480743408203 2.841792996939336e-15,-46.40999984741211 2.841792996939336e-15,-46.40999984741211z"></path><path fill="rgb(50,143,238)" fill-opacity="1" d=" M2.841792996939336e-15,-46.40999984741211 C2.841792996939336e-15,-46.40999984741211 23.479480743408203,-23.479480743408203 23.479480743408203,-23.479480743408203 C23.479480743408203,-23.479480743408203 46.40999984741211,0 46.40999984741211,0 C46.40999984741211,0 23.479480743408203,23.479480743408203 23.479480743408203,23.479480743408203 C23.479480743408203,23.479480743408203 2.841792996939336e-15,46.40999984741211 2.841792996939336e-15,46.40999984741211 C2.841792996939336e-15,46.40999984741211 -23.479480743408203,23.479480743408203 -23.479480743408203,23.479480743408203 C-23.479480743408203,23.479480743408203 -46.40999984741211,5.683585993878672e-15 -46.40999984741211,5.683585993878672e-15 C-46.40999984741211,5.683585993878672e-15 -23.479480743408203,-23.479480743408203 -23.479480743408203,-23.479480743408203 C-23.479480743408203,-23.479480743408203 2.841792996939336e-15,-46.40999984741211 2.841792996939336e-15,-46.40999984741211z"></path><path stroke-linecap="butt" stroke-linejoin="miter" fill-opacity="0" stroke-miterlimit="4" stroke="rgb(89,126,209)" stroke-opacity="1" stroke-width="0" d=" M2.841792996939336e-15,-46.40999984741211 C2.841792996939336e-15,-46.40999984741211 23.479480743408203,-23.479480743408203 23.479480743408203,-23.479480743408203 C23.479480743408203,-23.479480743408203 46.40999984741211,0 46.40999984741211,0 C46.40999984741211,0 23.479480743408203,23.479480743408203 23.479480743408203,23.479480743408203 C23.479480743408203,23.479480743408203 2.841792996939336e-15,46.40999984741211 2.841792996939336e-15,46.40999984741211 C2.841792996939336e-15,46.40999984741211 -23.479480743408203,23.479480743408203 -23.479480743408203,23.479480743408203 C-23.479480743408203,23.479480743408203 -46.40999984741211,5.683585993878672e-15 -46.40999984741211,5.683585993878672e-15 C-46.40999984741211,5.683585993878672e-15 -23.479480743408203,-23.479480743408203 -23.479480743408203,-23.479480743408203 C-23.479480743408203,-23.479480743408203 2.841792996939336e-15,-46.40999984741211 2.841792996939336e-15,-46.40999984741211z"></path></g></g><g transform="matrix(0,0,0,0,1177,1240.5679931640625)" opacity="1" style="display: block;"><g opacity="1" transform="matrix(1,0,0,1,-60,-130)"><path fill="rgb(237,20,20)" fill-opacity="1" d=" M2.841792996939336e-15,-46.40999984741211 C2.841792996939336e-15,-46.40999984741211 23.479480743408203,-23.479480743408203 23.479480743408203,-23.479480743408203 C23.479480743408203,-23.479480743408203 46.40999984741211,0 46.40999984741211,0 C46.40999984741211,0 23.479480743408203,23.479480743408203 23.479480743408203,23.479480743408203 C23.479480743408203,23.479480743408203 2.841792996939336e-15,46.40999984741211 2.841792996939336e-15,46.40999984741211 C2.841792996939336e-15,46.40999984741211 -23.479480743408203,23.479480743408203 -23.479480743408203,23.479480743408203 C-23.479480743408203,23.479480743408203 -46.40999984741211,5.683585993878672e-15 -46.40999984741211,5.683585993878672e-15 C-46.40999984741211,5.683585993878672e-15 -23.479480743408203,-23.479480743408203 -23.479480743408203,-23.479480743408203 C-23.479480743408203,-23.479480743408203 2.841792996939336e-15,-46.40999984741211 2.841792996939336e-15,-46.40999984741211z"></path><path fill="rgb(237,20,20)" fill-opacity="1" d=" M2.841792996939336e-15,-46.40999984741211 C2.841792996939336e-15,-46.40999984741211 23.479480743408203,-23.479480743408203 23.479480743408203,-23.479480743408203 C23.479480743408203,-23.479480743408203 46.40999984741211,0 46.40999984741211,0 C46.40999984741211,0 23.479480743408203,23.479480743408203 23.479480743408203,23.479480743408203 C23.479480743408203,23.479480743408203 2.841792996939336e-15,46.40999984741211 2.841792996939336e-15,46.40999984741211 C2.841792996939336e-15,46.40999984741211 -23.479480743408203,23.479480743408203 -23.479480743408203,23.479480743408203 C-23.479480743408203,23.479480743408203 -46.40999984741211,5.683585993878672e-15 -46.40999984741211,5.683585993878672e-15 C-46.40999984741211,5.683585993878672e-15 -23.479480743408203,-23.479480743408203 -23.479480743408203,-23.479480743408203 C-23.479480743408203,-23.479480743408203 2.841792996939336e-15,-46.40999984741211 2.841792996939336e-15,-46.40999984741211z"></path><path fill="rgb(237,20,20)" fill-opacity="1" d=" M2.841792996939336e-15,-46.40999984741211 C2.841792996939336e-15,-46.40999984741211 23.479480743408203,-23.479480743408203 23.479480743408203,-23.479480743408203 C23.479480743408203,-23.479480743408203 46.40999984741211,0 46.40999984741211,0 C46.40999984741211,0 23.479480743408203,23.479480743408203 23.479480743408203,23.479480743408203 C23.479480743408203,23.479480743408203 2.841792996939336e-15,46.40999984741211 2.841792996939336e-15,46.40999984741211 C2.841792996939336e-15,46.40999984741211 -23.479480743408203,23.479480743408203 -23.479480743408203,23.479480743408203 C-23.479480743408203,23.479480743408203 -46.40999984741211,5.683585993878672e-15 -46.40999984741211,5.683585993878672e-15 C-46.40999984741211,5.683585993878672e-15 -23.479480743408203,-23.479480743408203 -23.479480743408203,-23.479480743408203 C-23.479480743408203,-23.479480743408203 2.841792996939336e-15,-46.40999984741211 2.841792996939336e-15,-46.40999984741211z"></path><path fill="rgb(237,20,20)" fill-opacity="1" d=" M2.841792996939336e-15,-46.40999984741211 C2.841792996939336e-15,-46.40999984741211 23.479480743408203,-23.479480743408203 23.479480743408203,-23.479480743408203 C23.479480743408203,-23.479480743408203 46.40999984741211,0 46.40999984741211,0 C46.40999984741211,0 23.479480743408203,23.479480743408203 23.479480743408203,23.479480743408203 C23.479480743408203,23.479480743408203 2.841792996939336e-15,46.40999984741211 2.841792996939336e-15,46.40999984741211 C2.841792996939336e-15,46.40999984741211 -23.479480743408203,23.479480743408203 -23.479480743408203,23.479480743408203 C-23.479480743408203,23.479480743408203 -46.40999984741211,5.683585993878672e-15 -46.40999984741211,5.683585993878672e-15 C-46.40999984741211,5.683585993878672e-15 -23.479480743408203,-23.479480743408203 -23.479480743408203,-23.479480743408203 C-23.479480743408203,-23.479480743408203 2.841792996939336e-15,-46.40999984741211 2.841792996939336e-15,-46.40999984741211z"></path><path fill="rgb(237,20,20)" fill-opacity="1" d=" M2.841792996939336e-15,-46.40999984741211 C2.841792996939336e-15,-46.40999984741211 23.479480743408203,-23.479480743408203 23.479480743408203,-23.479480743408203 C23.479480743408203,-23.479480743408203 46.40999984741211,0 46.40999984741211,0 C46.40999984741211,0 23.479480743408203,23.479480743408203 23.479480743408203,23.479480743408203 C23.479480743408203,23.479480743408203 2.841792996939336e-15,46.40999984741211 2.841792996939336e-15,46.40999984741211 C2.841792996939336e-15,46.40999984741211 -23.479480743408203,23.479480743408203 -23.479480743408203,23.479480743408203 C-23.479480743408203,23.479480743408203 -46.40999984741211,5.683585993878672e-15 -46.40999984741211,5.683585993878672e-15 C-46.40999984741211,5.683585993878672e-15 -23.479480743408203,-23.479480743408203 -23.479480743408203,-23.479480743408203 C-23.479480743408203,-23.479480743408203 2.841792996939336e-15,-46.40999984741211 2.841792996939336e-15,-46.40999984741211z"></path><path fill="rgb(237,20,20)" fill-opacity="1" d=" M2.841792996939336e-15,-46.40999984741211 C2.841792996939336e-15,-46.40999984741211 23.479480743408203,-23.479480743408203 23.479480743408203,-23.479480743408203 C23.479480743408203,-23.479480743408203 46.40999984741211,0 46.40999984741211,0 C46.40999984741211,0 23.479480743408203,23.479480743408203 23.479480743408203,23.479480743408203 C23.479480743408203,23.479480743408203 2.841792996939336e-15,46.40999984741211 2.841792996939336e-15,46.40999984741211 C2.841792996939336e-15,46.40999984741211 -23.479480743408203,23.479480743408203 -23.479480743408203,23.479480743408203 C-23.479480743408203,23.479480743408203 -46.40999984741211,5.683585993878672e-15 -46.40999984741211,5.683585993878672e-15 C-46.40999984741211,5.683585993878672e-15 -23.479480743408203,-23.479480743408203 -23.479480743408203,-23.479480743408203 C-23.479480743408203,-23.479480743408203 2.841792996939336e-15,-46.40999984741211 2.841792996939336e-15,-46.40999984741211z"></path><path stroke-linecap="butt" stroke-linejoin="miter" fill-opacity="0" stroke-miterlimit="4" stroke="rgb(89,126,209)" stroke-opacity="1" stroke-width="0" d=" M2.841792996939336e-15,-46.40999984741211 C2.841792996939336e-15,-46.40999984741211 23.479480743408203,-23.479480743408203 23.479480743408203,-23.479480743408203 C23.479480743408203,-23.479480743408203 46.40999984741211,0 46.40999984741211,0 C46.40999984741211,0 23.479480743408203,23.479480743408203 23.479480743408203,23.479480743408203 C23.479480743408203,23.479480743408203 2.841792996939336e-15,46.40999984741211 2.841792996939336e-15,46.40999984741211 C2.841792996939336e-15,46.40999984741211 -23.479480743408203,23.479480743408203 -23.479480743408203,23.479480743408203 C-23.479480743408203,23.479480743408203 -46.40999984741211,5.683585993878672e-15 -46.40999984741211,5.683585993878672e-15 C-46.40999984741211,5.683585993878672e-15 -23.479480743408203,-23.479480743408203 -23.479480743408203,-23.479480743408203 C-23.479480743408203,-23.479480743408203 2.841792996939336e-15,-46.40999984741211 2.841792996939336e-15,-46.40999984741211z"></path></g></g><g transform="matrix(0,0,0,0,712,210.5679931640625)" opacity="1" style="display: block;"><g opacity="1" transform="matrix(1,0,0,1,-60,-130)"><path fill="rgb(20,237,71)" fill-opacity="1" d=" M2.841792996939336e-15,-46.40999984741211 C2.841792996939336e-15,-46.40999984741211 23.479480743408203,-23.479480743408203 23.479480743408203,-23.479480743408203 C23.479480743408203,-23.479480743408203 46.40999984741211,0 46.40999984741211,0 C46.40999984741211,0 23.479480743408203,23.479480743408203 23.479480743408203,23.479480743408203 C23.479480743408203,23.479480743408203 2.841792996939336e-15,46.40999984741211 2.841792996939336e-15,46.40999984741211 C2.841792996939336e-15,46.40999984741211 -23.479480743408203,23.479480743408203 -23.479480743408203,23.479480743408203 C-23.479480743408203,23.479480743408203 -46.40999984741211,5.683585993878672e-15 -46.40999984741211,5.683585993878672e-15 C-46.40999984741211,5.683585993878672e-15 -23.479480743408203,-23.479480743408203 -23.479480743408203,-23.479480743408203 C-23.479480743408203,-23.479480743408203 2.841792996939336e-15,-46.40999984741211 2.841792996939336e-15,-46.40999984741211z"></path><path fill="rgb(20,237,71)" fill-opacity="1" d=" M2.841792996939336e-15,-46.40999984741211 C2.841792996939336e-15,-46.40999984741211 23.479480743408203,-23.479480743408203 23.479480743408203,-23.479480743408203 C23.479480743408203,-23.479480743408203 46.40999984741211,0 46.40999984741211,0 C46.40999984741211,0 23.479480743408203,23.479480743408203 23.479480743408203,23.479480743408203 C23.479480743408203,23.479480743408203 2.841792996939336e-15,46.40999984741211 2.841792996939336e-15,46.40999984741211 C2.841792996939336e-15,46.40999984741211 -23.479480743408203,23.479480743408203 -23.479480743408203,23.479480743408203 C-23.479480743408203,23.479480743408203 -46.40999984741211,5.683585993878672e-15 -46.40999984741211,5.683585993878672e-15 C-46.40999984741211,5.683585993878672e-15 -23.479480743408203,-23.479480743408203 -23.479480743408203,-23.479480743408203 C-23.479480743408203,-23.479480743408203 2.841792996939336e-15,-46.40999984741211 2.841792996939336e-15,-46.40999984741211z"></path><path fill="rgb(20,237,71)" fill-opacity="1" d=" M2.841792996939336e-15,-46.40999984741211 C2.841792996939336e-15,-46.40999984741211 23.479480743408203,-23.479480743408203 23.479480743408203,-23.479480743408203 C23.479480743408203,-23.479480743408203 46.40999984741211,0 46.40999984741211,0 C46.40999984741211,0 23.479480743408203,23.479480743408203 23.479480743408203,23.479480743408203 C23.479480743408203,23.479480743408203 2.841792996939336e-15,46.40999984741211 2.841792996939336e-15,46.40999984741211 C2.841792996939336e-15,46.40999984741211 -23.479480743408203,23.479480743408203 -23.479480743408203,23.479480743408203 C-23.479480743408203,23.479480743408203 -46.40999984741211,5.683585993878672e-15 -46.40999984741211,5.683585993878672e-15 C-46.40999984741211,5.683585993878672e-15 -23.479480743408203,-23.479480743408203 -23.479480743408203,-23.479480743408203 C-23.479480743408203,-23.479480743408203 2.841792996939336e-15,-46.40999984741211 2.841792996939336e-15,-46.40999984741211z"></path><path fill="rgb(20,237,71)" fill-opacity="1" d=" M2.841792996939336e-15,-46.40999984741211 C2.841792996939336e-15,-46.40999984741211 23.479480743408203,-23.479480743408203 23.479480743408203,-23.479480743408203 C23.479480743408203,-23.479480743408203 46.40999984741211,0 46.40999984741211,0 C46.40999984741211,0 23.479480743408203,23.479480743408203 23.479480743408203,23.479480743408203 C23.479480743408203,23.479480743408203 2.841792996939336e-15,46.40999984741211 2.841792996939336e-15,46.40999984741211 C2.841792996939336e-15,46.40999984741211 -23.479480743408203,23.479480743408203 -23.479480743408203,23.479480743408203 C-23.479480743408203,23.479480743408203 -46.40999984741211,5.683585993878672e-15 -46.40999984741211,5.683585993878672e-15 C-46.40999984741211,5.683585993878672e-15 -23.479480743408203,-23.479480743408203 -23.479480743408203,-23.479480743408203 C-23.479480743408203,-23.479480743408203 2.841792996939336e-15,-46.40999984741211 2.841792996939336e-15,-46.40999984741211z"></path><path fill="rgb(20,237,71)" fill-opacity="1" d=" M2.841792996939336e-15,-46.40999984741211 C2.841792996939336e-15,-46.40999984741211 23.479480743408203,-23.479480743408203 23.479480743408203,-23.479480743408203 C23.479480743408203,-23.479480743408203 46.40999984741211,0 46.40999984741211,0 C46.40999984741211,0 23.479480743408203,23.479480743408203 23.479480743408203,23.479480743408203 C23.479480743408203,23.479480743408203 2.841792996939336e-15,46.40999984741211 2.841792996939336e-15,46.40999984741211 C2.841792996939336e-15,46.40999984741211 -23.479480743408203,23.479480743408203 -23.479480743408203,23.479480743408203 C-23.479480743408203,23.479480743408203 -46.40999984741211,5.683585993878672e-15 -46.40999984741211,5.683585993878672e-15 C-46.40999984741211,5.683585993878672e-15 -23.479480743408203,-23.479480743408203 -23.479480743408203,-23.479480743408203 C-23.479480743408203,-23.479480743408203 2.841792996939336e-15,-46.40999984741211 2.841792996939336e-15,-46.40999984741211z"></path><path fill="rgb(20,237,71)" fill-opacity="1" d=" M2.841792996939336e-15,-46.40999984741211 C2.841792996939336e-15,-46.40999984741211 23.479480743408203,-23.479480743408203 23.479480743408203,-23.479480743408203 C23.479480743408203,-23.479480743408203 46.40999984741211,0 46.40999984741211,0 C46.40999984741211,0 23.479480743408203,23.479480743408203 23.479480743408203,23.479480743408203 C23.479480743408203,23.479480743408203 2.841792996939336e-15,46.40999984741211 2.841792996939336e-15,46.40999984741211 C2.841792996939336e-15,46.40999984741211 -23.479480743408203,23.479480743408203 -23.479480743408203,23.479480743408203 C-23.479480743408203,23.479480743408203 -46.40999984741211,5.683585993878672e-15 -46.40999984741211,5.683585993878672e-15 C-46.40999984741211,5.683585993878672e-15 -23.479480743408203,-23.479480743408203 -23.479480743408203,-23.479480743408203 C-23.479480743408203,-23.479480743408203 2.841792996939336e-15,-46.40999984741211 2.841792996939336e-15,-46.40999984741211z"></path><path stroke-linecap="butt" stroke-linejoin="miter" fill-opacity="0" stroke-miterlimit="4" stroke="rgb(89,126,209)" stroke-opacity="1" stroke-width="0" d=" M2.841792996939336e-15,-46.40999984741211 C2.841792996939336e-15,-46.40999984741211 23.479480743408203,-23.479480743408203 23.479480743408203,-23.479480743408203 C23.479480743408203,-23.479480743408203 46.40999984741211,0 46.40999984741211,0 C46.40999984741211,0 23.479480743408203,23.479480743408203 23.479480743408203,23.479480743408203 C23.479480743408203,23.479480743408203 2.841792996939336e-15,46.40999984741211 2.841792996939336e-15,46.40999984741211 C2.841792996939336e-15,46.40999984741211 -23.479480743408203,23.479480743408203 -23.479480743408203,23.479480743408203 C-23.479480743408203,23.479480743408203 -46.40999984741211,5.683585993878672e-15 -46.40999984741211,5.683585993878672e-15 C-46.40999984741211,5.683585993878672e-15 -23.479480743408203,-23.479480743408203 -23.479480743408203,-23.479480743408203 C-23.479480743408203,-23.479480743408203 2.841792996939336e-15,-46.40999984741211 2.841792996939336e-15,-46.40999984741211z"></path></g></g><g transform="matrix(0,0,0,0,262,1315.5679931640625)" opacity="1" style="display: block;"><g opacity="1" transform="matrix(1,0,0,1,-60,-130)"><path fill="rgb(154,68,4)" fill-opacity="1" d=" M2.841792996939336e-15,-46.40999984741211 C2.841792996939336e-15,-46.40999984741211 23.479480743408203,-23.479480743408203 23.479480743408203,-23.479480743408203 C23.479480743408203,-23.479480743408203 46.40999984741211,0 46.40999984741211,0 C46.40999984741211,0 23.479480743408203,23.479480743408203 23.479480743408203,23.479480743408203 C23.479480743408203,23.479480743408203 2.841792996939336e-15,46.40999984741211 2.841792996939336e-15,46.40999984741211 C2.841792996939336e-15,46.40999984741211 -23.479480743408203,23.479480743408203 -23.479480743408203,23.479480743408203 C-23.479480743408203,23.479480743408203 -46.40999984741211,5.683585993878672e-15 -46.40999984741211,5.683585993878672e-15 C-46.40999984741211,5.683585993878672e-15 -23.479480743408203,-23.479480743408203 -23.479480743408203,-23.479480743408203 C-23.479480743408203,-23.479480743408203 2.841792996939336e-15,-46.40999984741211 2.841792996939336e-15,-46.40999984741211z"></path><path fill="rgb(154,68,4)" fill-opacity="1" d=" M2.841792996939336e-15,-46.40999984741211 C2.841792996939336e-15,-46.40999984741211 23.479480743408203,-23.479480743408203 23.479480743408203,-23.479480743408203 C23.479480743408203,-23.479480743408203 46.40999984741211,0 46.40999984741211,0 C46.40999984741211,0 23.479480743408203,23.479480743408203 23.479480743408203,23.479480743408203 C23.479480743408203,23.479480743408203 2.841792996939336e-15,46.40999984741211 2.841792996939336e-15,46.40999984741211 C2.841792996939336e-15,46.40999984741211 -23.479480743408203,23.479480743408203 -23.479480743408203,23.479480743408203 C-23.479480743408203,23.479480743408203 -46.40999984741211,5.683585993878672e-15 -46.40999984741211,5.683585993878672e-15 C-46.40999984741211,5.683585993878672e-15 -23.479480743408203,-23.479480743408203 -23.479480743408203,-23.479480743408203 C-23.479480743408203,-23.479480743408203 2.841792996939336e-15,-46.40999984741211 2.841792996939336e-15,-46.40999984741211z"></path><path fill="rgb(154,68,4)" fill-opacity="1" d=" M2.841792996939336e-15,-46.40999984741211 C2.841792996939336e-15,-46.40999984741211 23.479480743408203,-23.479480743408203 23.479480743408203,-23.479480743408203 C23.479480743408203,-23.479480743408203 46.40999984741211,0 46.40999984741211,0 C46.40999984741211,0 23.479480743408203,23.479480743408203 23.479480743408203,23.479480743408203 C23.479480743408203,23.479480743408203 2.841792996939336e-15,46.40999984741211 2.841792996939336e-15,46.40999984741211 C2.841792996939336e-15,46.40999984741211 -23.479480743408203,23.479480743408203 -23.479480743408203,23.479480743408203 C-23.479480743408203,23.479480743408203 -46.40999984741211,5.683585993878672e-15 -46.40999984741211,5.683585993878672e-15 C-46.40999984741211,5.683585993878672e-15 -23.479480743408203,-23.479480743408203 -23.479480743408203,-23.479480743408203 C-23.479480743408203,-23.479480743408203 2.841792996939336e-15,-46.40999984741211 2.841792996939336e-15,-46.40999984741211z"></path><path fill="rgb(154,68,4)" fill-opacity="1" d=" M2.841792996939336e-15,-46.40999984741211 C2.841792996939336e-15,-46.40999984741211 23.479480743408203,-23.479480743408203 23.479480743408203,-23.479480743408203 C23.479480743408203,-23.479480743408203 46.40999984741211,0 46.40999984741211,0 C46.40999984741211,0 23.479480743408203,23.479480743408203 23.479480743408203,23.479480743408203 C23.479480743408203,23.479480743408203 2.841792996939336e-15,46.40999984741211 2.841792996939336e-15,46.40999984741211 C2.841792996939336e-15,46.40999984741211 -23.479480743408203,23.479480743408203 -23.479480743408203,23.479480743408203 C-23.479480743408203,23.479480743408203 -46.40999984741211,5.683585993878672e-15 -46.40999984741211,5.683585993878672e-15 C-46.40999984741211,5.683585993878672e-15 -23.479480743408203,-23.479480743408203 -23.479480743408203,-23.479480743408203 C-23.479480743408203,-23.479480743408203 2.841792996939336e-15,-46.40999984741211 2.841792996939336e-15,-46.40999984741211z"></path><path fill="rgb(154,68,4)" fill-opacity="1" d=" M2.841792996939336e-15,-46.40999984741211 C2.841792996939336e-15,-46.40999984741211 23.479480743408203,-23.479480743408203 23.479480743408203,-23.479480743408203 C23.479480743408203,-23.479480743408203 46.40999984741211,0 46.40999984741211,0 C46.40999984741211,0 23.479480743408203,23.479480743408203 23.479480743408203,23.479480743408203 C23.479480743408203,23.479480743408203 2.841792996939336e-15,46.40999984741211 2.841792996939336e-15,46.40999984741211 C2.841792996939336e-15,46.40999984741211 -23.479480743408203,23.479480743408203 -23.479480743408203,23.479480743408203 C-23.479480743408203,23.479480743408203 -46.40999984741211,5.683585993878672e-15 -46.40999984741211,5.683585993878672e-15 C-46.40999984741211,5.683585993878672e-15 -23.479480743408203,-23.479480743408203 -23.479480743408203,-23.479480743408203 C-23.479480743408203,-23.479480743408203 2.841792996939336e-15,-46.40999984741211 2.841792996939336e-15,-46.40999984741211z"></path><path fill="rgb(154,68,4)" fill-opacity="1" d=" M2.841792996939336e-15,-46.40999984741211 C2.841792996939336e-15,-46.40999984741211 23.479480743408203,-23.479480743408203 23.479480743408203,-23.479480743408203 C23.479480743408203,-23.479480743408203 46.40999984741211,0 46.40999984741211,0 C46.40999984741211,0 23.479480743408203,23.479480743408203 23.479480743408203,23.479480743408203 C23.479480743408203,23.479480743408203 2.841792996939336e-15,46.40999984741211 2.841792996939336e-15,46.40999984741211 C2.841792996939336e-15,46.40999984741211 -23.479480743408203,23.479480743408203 -23.479480743408203,23.479480743408203 C-23.479480743408203,23.479480743408203 -46.40999984741211,5.683585993878672e-15 -46.40999984741211,5.683585993878672e-15 C-46.40999984741211,5.683585993878672e-15 -23.479480743408203,-23.479480743408203 -23.479480743408203,-23.479480743408203 C-23.479480743408203,-23.479480743408203 2.841792996939336e-15,-46.40999984741211 2.841792996939336e-15,-46.40999984741211z"></path><path stroke-linecap="butt" stroke-linejoin="miter" fill-opacity="0" stroke-miterlimit="4" stroke="rgb(89,126,209)" stroke-opacity="1" stroke-width="0" d=" M2.841792996939336e-15,-46.40999984741211 C2.841792996939336e-15,-46.40999984741211 23.479480743408203,-23.479480743408203 23.479480743408203,-23.479480743408203 C23.479480743408203,-23.479480743408203 46.40999984741211,0 46.40999984741211,0 C46.40999984741211,0 23.479480743408203,23.479480743408203 23.479480743408203,23.479480743408203 C23.479480743408203,23.479480743408203 2.841792996939336e-15,46.40999984741211 2.841792996939336e-15,46.40999984741211 C2.841792996939336e-15,46.40999984741211 -23.479480743408203,23.479480743408203 -23.479480743408203,23.479480743408203 C-23.479480743408203,23.479480743408203 -46.40999984741211,5.683585993878672e-15 -46.40999984741211,5.683585993878672e-15 C-46.40999984741211,5.683585993878672e-15 -23.479480743408203,-23.479480743408203 -23.479480743408203,-23.479480743408203 C-23.479480743408203,-23.479480743408203 2.841792996939336e-15,-46.40999984741211 2.841792996939336e-15,-46.40999984741211z"></path></g></g><g transform="matrix(0,0,0,0,217,750.5679931640625)" opacity="1" style="display: block;"><g opacity="1" transform="matrix(1,0,0,1,-60,-130)"><path fill="rgb(99,17,163)" fill-opacity="1" d=" M2.841792996939336e-15,-46.40999984741211 C2.841792996939336e-15,-46.40999984741211 23.479480743408203,-23.479480743408203 23.479480743408203,-23.479480743408203 C23.479480743408203,-23.479480743408203 46.40999984741211,0 46.40999984741211,0 C46.40999984741211,0 23.479480743408203,23.479480743408203 23.479480743408203,23.479480743408203 C23.479480743408203,23.479480743408203 2.841792996939336e-15,46.40999984741211 2.841792996939336e-15,46.40999984741211 C2.841792996939336e-15,46.40999984741211 -23.479480743408203,23.479480743408203 -23.479480743408203,23.479480743408203 C-23.479480743408203,23.479480743408203 -46.40999984741211,5.683585993878672e-15 -46.40999984741211,5.683585993878672e-15 C-46.40999984741211,5.683585993878672e-15 -23.479480743408203,-23.479480743408203 -23.479480743408203,-23.479480743408203 C-23.479480743408203,-23.479480743408203 2.841792996939336e-15,-46.40999984741211 2.841792996939336e-15,-46.40999984741211z"></path><path fill="rgb(99,17,163)" fill-opacity="1" d=" M2.841792996939336e-15,-46.40999984741211 C2.841792996939336e-15,-46.40999984741211 23.479480743408203,-23.479480743408203 23.479480743408203,-23.479480743408203 C23.479480743408203,-23.479480743408203 46.40999984741211,0 46.40999984741211,0 C46.40999984741211,0 23.479480743408203,23.479480743408203 23.479480743408203,23.479480743408203 C23.479480743408203,23.479480743408203 2.841792996939336e-15,46.40999984741211 2.841792996939336e-15,46.40999984741211 C2.841792996939336e-15,46.40999984741211 -23.479480743408203,23.479480743408203 -23.479480743408203,23.479480743408203 C-23.479480743408203,23.479480743408203 -46.40999984741211,5.683585993878672e-15 -46.40999984741211,5.683585993878672e-15 C-46.40999984741211,5.683585993878672e-15 -23.479480743408203,-23.479480743408203 -23.479480743408203,-23.479480743408203 C-23.479480743408203,-23.479480743408203 2.841792996939336e-15,-46.40999984741211 2.841792996939336e-15,-46.40999984741211z"></path><path fill="rgb(99,17,163)" fill-opacity="1" d=" M2.841792996939336e-15,-46.40999984741211 C2.841792996939336e-15,-46.40999984741211 23.479480743408203,-23.479480743408203 23.479480743408203,-23.479480743408203 C23.479480743408203,-23.479480743408203 46.40999984741211,0 46.40999984741211,0 C46.40999984741211,0 23.479480743408203,23.479480743408203 23.479480743408203,23.479480743408203 C23.479480743408203,23.479480743408203 2.841792996939336e-15,46.40999984741211 2.841792996939336e-15,46.40999984741211 C2.841792996939336e-15,46.40999984741211 -23.479480743408203,23.479480743408203 -23.479480743408203,23.479480743408203 C-23.479480743408203,23.479480743408203 -46.40999984741211,5.683585993878672e-15 -46.40999984741211,5.683585993878672e-15 C-46.40999984741211,5.683585993878672e-15 -23.479480743408203,-23.479480743408203 -23.479480743408203,-23.479480743408203 C-23.479480743408203,-23.479480743408203 2.841792996939336e-15,-46.40999984741211 2.841792996939336e-15,-46.40999984741211z"></path><path fill="rgb(99,17,163)" fill-opacity="1" d=" M2.841792996939336e-15,-46.40999984741211 C2.841792996939336e-15,-46.40999984741211 23.479480743408203,-23.479480743408203 23.479480743408203,-23.479480743408203 C23.479480743408203,-23.479480743408203 46.40999984741211,0 46.40999984741211,0 C46.40999984741211,0 23.479480743408203,23.479480743408203 23.479480743408203,23.479480743408203 C23.479480743408203,23.479480743408203 2.841792996939336e-15,46.40999984741211 2.841792996939336e-15,46.40999984741211 C2.841792996939336e-15,46.40999984741211 -23.479480743408203,23.479480743408203 -23.479480743408203,23.479480743408203 C-23.479480743408203,23.479480743408203 -46.40999984741211,5.683585993878672e-15 -46.40999984741211,5.683585993878672e-15 C-46.40999984741211,5.683585993878672e-15 -23.479480743408203,-23.479480743408203 -23.479480743408203,-23.479480743408203 C-23.479480743408203,-23.479480743408203 2.841792996939336e-15,-46.40999984741211 2.841792996939336e-15,-46.40999984741211z"></path><path fill="rgb(99,17,163)" fill-opacity="1" d=" M2.841792996939336e-15,-46.40999984741211 C2.841792996939336e-15,-46.40999984741211 23.479480743408203,-23.479480743408203 23.479480743408203,-23.479480743408203 C23.479480743408203,-23.479480743408203 46.40999984741211,0 46.40999984741211,0 C46.40999984741211,0 23.479480743408203,23.479480743408203 23.479480743408203,23.479480743408203 C23.479480743408203,23.479480743408203 2.841792996939336e-15,46.40999984741211 2.841792996939336e-15,46.40999984741211 C2.841792996939336e-15,46.40999984741211 -23.479480743408203,23.479480743408203 -23.479480743408203,23.479480743408203 C-23.479480743408203,23.479480743408203 -46.40999984741211,5.683585993878672e-15 -46.40999984741211,5.683585993878672e-15 C-46.40999984741211,5.683585993878672e-15 -23.479480743408203,-23.479480743408203 -23.479480743408203,-23.479480743408203 C-23.479480743408203,-23.479480743408203 2.841792996939336e-15,-46.40999984741211 2.841792996939336e-15,-46.40999984741211z"></path><path fill="rgb(99,17,163)" fill-opacity="1" d=" M2.841792996939336e-15,-46.40999984741211 C2.841792996939336e-15,-46.40999984741211 23.479480743408203,-23.479480743408203 23.479480743408203,-23.479480743408203 C23.479480743408203,-23.479480743408203 46.40999984741211,0 46.40999984741211,0 C46.40999984741211,0 23.479480743408203,23.479480743408203 23.479480743408203,23.479480743408203 C23.479480743408203,23.479480743408203 2.841792996939336e-15,46.40999984741211 2.841792996939336e-15,46.40999984741211 C2.841792996939336e-15,46.40999984741211 -23.479480743408203,23.479480743408203 -23.479480743408203,23.479480743408203 C-23.479480743408203,23.479480743408203 -46.40999984741211,5.683585993878672e-15 -46.40999984741211,5.683585993878672e-15 C-46.40999984741211,5.683585993878672e-15 -23.479480743408203,-23.479480743408203 -23.479480743408203,-23.479480743408203 C-23.479480743408203,-23.479480743408203 2.841792996939336e-15,-46.40999984741211 2.841792996939336e-15,-46.40999984741211z"></path><path stroke-linecap="butt" stroke-linejoin="miter" fill-opacity="0" stroke-miterlimit="4" stroke="rgb(89,126,209)" stroke-opacity="1" stroke-width="0" d=" M2.841792996939336e-15,-46.40999984741211 C2.841792996939336e-15,-46.40999984741211 23.479480743408203,-23.479480743408203 23.479480743408203,-23.479480743408203 C23.479480743408203,-23.479480743408203 46.40999984741211,0 46.40999984741211,0 C46.40999984741211,0 23.479480743408203,23.479480743408203 23.479480743408203,23.479480743408203 C23.479480743408203,23.479480743408203 2.841792996939336e-15,46.40999984741211 2.841792996939336e-15,46.40999984741211 C2.841792996939336e-15,46.40999984741211 -23.479480743408203,23.479480743408203 -23.479480743408203,23.479480743408203 C-23.479480743408203,23.479480743408203 -46.40999984741211,5.683585993878672e-15 -46.40999984741211,5.683585993878672e-15 C-46.40999984741211,5.683585993878672e-15 -23.479480743408203,-23.479480743408203 -23.479480743408203,-23.479480743408203 C-23.479480743408203,-23.479480743408203 2.841792996939336e-15,-46.40999984741211 2.841792996939336e-15,-46.40999984741211z"></path></g></g></g></svg>